<?xml version="1.0" encoding="utf-8"?>
<!-- Generator: Adobe Illustrator 22.0.1, SVG Export Plug-In . SVG Version: 6.00 Build 0)  -->
<svg version="1.0" id="レイヤー_1" xmlns="http://www.w3.org/2000/svg" xmlns:xlink="http://www.w3.org/1999/xlink" x="0px"
	 y="0px" viewBox="0 0 535.6 377.3" enable-background="new 0 0 535.6 377.3" xml:space="preserve">
<path fill="#FFFFFF" stroke="#4B271D" stroke-width="12" stroke-linecap="round" stroke-linejoin="round" d="M291,364.3
	c132,0,234.6-17.3,238.6-136.8c1.5-44.7-37-117.2-85-135.5c-5.4-39.4-36.7-83.4-37.2-83.6c-0.8-0.4-50.1,37.6-66.1,65
	c-15.1-3.3-25.4-4.4-50.2-3.9c-24.9,0.5-35.1,0.7-50.2,3.9C221.9,36.7,173.1,5.6,173.2,6c-0.1-0.4-30.7,46.7-35.7,86.1
	c-48,18.3-86.5,90.9-85,135.5C56.4,347,159.1,364.3,291,364.3z"/>
<path fill="#4B271D" d="M244.4,161c0,11-8.9,19.9-19.9,19.9c-11,0-19.9-8.9-19.9-19.9c0-11,8.9-19.9,19.9-19.9
	C235.5,141.1,244.4,150,244.4,161z"/>
<circle fill="#FA9AB7" cx="140.6" cy="198.8" r="31.5"/>
<circle fill="#FA9AB7" cx="440.6" cy="198.8" r="31.5"/>
<path fill="#FA9AB7" d="M181.1,44c-6.3,0.8-20.1,43-18.2,44.3c3,2.1,9.3-4.2,28.3-7.2c18.8-3,24.1,0,25.3-3.4
	C217.8,74.4,187.4,43.2,181.1,44z"/>
<path fill="#FA9AB7" d="M401.2,44c6.3,0.8,20.1,43,18.2,44.3c-3,2.1-9.3-4.2-28.3-7.2c-18.8-3-24.1,0-25.3-3.4S394.8,43.2,401.2,44z
	"/>
<path fill="#FF0000" d="M272.9,235.3c15-7,18-13,18-13s4,11,20,14s38-8,38-8s-5,65-56,62c-53.9-3.2-60-56-60-56
	S257.9,242.3,272.9,235.3z"/>
<path fill="none" stroke="#4B271D" stroke-width="12" stroke-linecap="round" stroke-linejoin="round" d="M233.9,233.3
	c6,13.3,13,58.7,60.3,58.7c52,0,57.7-72.7,57.7-72.7c-29,39-61,1-62,2s-15,18-40,16.8c-11.3-0.6-41-12.8-19.6-31.4"/>
<path fill-rule="evenodd" clip-rule="evenodd" fill="#FFFFFF" stroke="#4B271D" stroke-width="12" stroke-linecap="round" stroke-linejoin="round" d="
	M38.8,317.5c-3.1-18.1-1.4-38.5-5.5-55.1c-4.4-17.5-13.2-56.5,18.4-53.6c15.5,1.4,23.9,15.8,28.9,28.9c3.2,8.5,2.8,31.3,8.4,36.6
	c8.1,7.7,23.4-15.7,33,10c1.6,4.2-2.7,9.5-6,11.3c14.3-2.3,24.7,15.3,7.7,20.4c0,0,0,0,0,0c11.5,0.7,23.9,10.5,9.8,19.8
	c17.5-1.6,12.9,15.9,6.7,22.6c-8.1,8.8-24.4,11.4-35.7,12.4c-26.5,2.5-36.8-6.8-54-26.5C43.7,336.9,40.5,327.6,38.8,317.5z"/>
<polyline fill="none" stroke="#4B271D" stroke-width="12" stroke-linecap="round" stroke-linejoin="round" points="374.9,139.3 
	339.9,160.3 373.9,184.3 "/>
<path fill="#FFCC00" d="M104.8,81.5c-40.9-6.4-46-11.5-52.4-52.4C46.1,70,40.9,75.2,0,81.5C40.9,87.9,46.1,93,52.4,134
	C58.8,93.1,63.9,87.9,104.8,81.5z"/>
<g>
	<path fill="none" stroke="#4B271D" stroke-width="12" stroke-linecap="round" stroke-linejoin="round" d="M275.8,182.5
		c0,0,8.4,14.2,14.3,14.2c5.9,0,13.9-14.2,13.9-14.2"/>
</g>
</svg>
